<?xml version="1.0" encoding="UTF-8" standalone="no"?>
<svg
   xmlns:dc="http://purl.org/dc/elements/1.1/"
   xmlns:cc="http://creativecommons.org/ns#"
   xmlns:rdf="http://www.w3.org/1999/02/22-rdf-syntax-ns#"
   xmlns:svg="http://www.w3.org/2000/svg"
   xmlns="http://www.w3.org/2000/svg"
   width="16"
   height="16"
   viewBox="0 0 16 16"
   id="svg2"
   version="1.1">
  <defs
     id="defs4" />
  <metadata
     id="metadata7">
    <rdf:RDF>
      <cc:Work
         rdf:about="">
        <dc:format>image/svg+xml</dc:format>
        <dc:type
           rdf:resource="http://purl.org/dc/dcmitype/StillImage" />
        <dc:title></dc:title>
      </cc:Work>
    </rdf:RDF>
  </metadata>
  <path
     id="path3401"
     d="M 8,6 C 7,6 5.8,6 5.3,5 5,5 4.7,5 4.7,4.9 4.7,4.9 4.8,4.6 4.9,4.3 5.6,2.2 6.6,0.67 7.3,0.47 c 0.1,0 0.3,0 0.4,0.1 0.3,0.1 0.3,0.1 0.4,0 0.2,-0.2 0.6,0 1.1,0.3 C 9.9,1.4 9.9,2.3 9.9,3.1 11,3.6 11,4.5 9.9,4.8 9.9,5 9.9,6 9.1,6 8.7,7 8.6,7 8,6 Z"
     style="fill:#a0a0a0;stroke:none;stroke-width:1px;stroke-linecap:butt;stroke-linejoin:miter;stroke-opacity:1" />
  <path
     id="path3405"
     d="M 8,14 C 6.3,13 5.2,13 4.8,12 c -0.1,0 -0.1,0 0,0 0.1,-1 0.6,-1 1,-2 0.3,0 0.3,0 0.6,0 l 0.3,0 0,0 0.1,-0.3 0.1,0.2 C 7,10 7,10 7.4,10 8.5,10 10,11 11,12 l 0,0 c 0,1 -1,1 -1.7,1 0,1 -1,1 -1.3,1 z"
     style="fill:#a0a0a0;stroke:none;stroke-width:1px;stroke-linecap:butt;stroke-linejoin:miter;stroke-opacity:1" />
</svg>
