<?xml version="1.0" encoding="UTF-8" standalone="no"?>
<svg
   xmlns:dc="http://purl.org/dc/elements/1.1/"
   xmlns:cc="http://creativecommons.org/ns#"
   xmlns:rdf="http://www.w3.org/1999/02/22-rdf-syntax-ns#"
   xmlns:svg="http://www.w3.org/2000/svg"
   xmlns="http://www.w3.org/2000/svg"
   version="1.1"
   id="svg2"
   viewBox="0 0 16 16"
   height="16"
   width="16">
  <defs
     id="defs4" />
  <metadata
     id="metadata7">
    <rdf:RDF>
      <cc:Work
         rdf:about="">
        <dc:format>image/svg+xml</dc:format>
        <dc:type
           rdf:resource="http://purl.org/dc/dcmitype/StillImage" />
        <dc:title></dc:title>
      </cc:Work>
    </rdf:RDF>
  </metadata>
  <g
     transform="translate(0,-1036.3622)"
     id="layer1">
    <path
       id="path3344"
       d="m 8.5070575,1042.3262 c -1.3124961,-0.3585 -2.5707051,-1.4677 -2.9257732,-2.5793 -0.0995,-0.3117 -0.1105138,-0.4136 -0.093405,-0.8641 0.023225,-0.6112 0.125605,-0.9782 0.3855737,-1.3827 0.2713722,-0.4221 0.5778452,-0.6159 0.971724,-0.6144 0.1746958,0 0.3730493,0.033 0.4407669,0.07 0.06772,0.04 0.2271504,0.069 0.3542966,0.069 0.4230787,0 0.7314932,0.2362 0.9691394,0.742 0.1158358,0.2466 0.2070501,0.3549 0.4221406,0.5012 0.1509095,0.1045 0.4416656,0.3 0.646132,0.438 0.387154,0.2618 0.654876,0.5828 0.744378,0.8924 0.03915,0.1356 0.04228,0.4304 0.01242,1.1647 l -0.03998,0.9836 -0.149732,0.1789 c -0.3475097,0.4159 -1.0716357,0.5832 -1.7377026,0.4012 z"
       style="fill:#a0a0a0;stroke:none;stroke-width:1px;stroke-linecap:butt;stroke-linejoin:miter;stroke-opacity:1" />
    <path
       id="path3358"
       d="m 3.4074081,1051.5428 c -0.5815727,-0.1297 -1.1276269,-0.3709 -1.6308524,-0.7203 -0.98866179,-0.6863 -1.48944686,-1.7962 -1.22162876,-2.7073 0.0380379,-0.1295 0.18962675,-0.5018 0.33687888,-0.8275 0.14725228,-0.3259 0.37043678,-0.9124 0.49596988,-1.3038 0.3831375,-1.1934 0.487577,-1.3675 0.8951955,-1.4928 0.6023326,-0.1853 1.9258606,0.5264 2.8860693,1.5519 0.6065539,0.6476 1.0344403,1.3799 1.2683289,2.1705 0.1012191,0.3421 0.1149107,0.4731 0.1160702,1.1121 0.0012,0.7133 -0.0012,0.7315 -0.1641221,1.2041 -0.090986,0.2638 -0.2197049,0.535 -0.2860412,0.6027 -0.768705,0.5907 -1.839418,0.5892 -2.6958667,0.4104 z"
       style="fill:#a0a0a0;stroke:none;stroke-width:1px;stroke-linecap:butt;stroke-linejoin:miter;stroke-opacity:1" />
    <path
       id="path3360"
       d="m 12.262316,1051.9826 c -0.132304,-0.051 -0.42747,-0.2216 -0.65593,-0.3824 -0.347594,-0.2449 -0.476069,-0.3804 -0.787252,-0.8314 -0.551035,-0.7986 -0.8321546,-1.5586 -0.9290674,-2.5117 -0.098577,-0.9699 0.089763,-1.8085 0.5565834,-2.4787 0.388215,-0.5572 0.928545,-0.921 1.626862,-1.0949 0.264416,-0.066 0.275599,-0.064 0.502969,0.1341 0.849923,0.7356 2.08129,2.3323 2.504797,3.2477 0.326836,0.7066 0.436774,1.1335 0.437091,1.6961 2.15e-4,0.3598 -0.02166,0.5294 -0.09298,0.7227 -0.22073,0.5973 -0.887076,1.2066 -1.608855,1.4713 -0.413937,0.151 -1.185847,0.166 -1.554211,0.029 z"
       style="fill:#a0a0a0;stroke:none;stroke-width:1px;stroke-linecap:butt;stroke-linejoin:miter;stroke-opacity:1" />
    <path
       id="path3362"
       d="m -571.64985,724.24754 c -30.26864,-6.48811 -57.0692,-25.06173 -67.90234,-47.05843 -10.02403,-20.3538 -9.75088,-36.51137 0.97731,-57.81101 15.3721,-30.51961 42.78733,-46.06188 77.63931,-44.01538 7.07143,0.41523 15.75,1.84091 19.28572,3.16817 4.10894,1.54244 11.84104,2.57452 21.42857,2.86029 24.3328,0.72526 41.52305,8.72932 52.91508,24.63808 30.1116,42.05037 4.40173,97.65036 -53.62937,115.97852 -12.76452,4.03147 -37.30025,5.11507 -50.71428,2.23976 z"
       style="fill:#a0a0a0;stroke:none;stroke-width:1px;stroke-linecap:butt;stroke-linejoin:miter;stroke-opacity:1" />
    <path
       id="path3364"
       d="m -493.53753,522.02616 c -53.84628,-6.65179 -85.72314,-43.23664 -77.78846,-89.2773 3.20993,-18.6255 7.44086,-28.78119 15.23934,-36.57966 12.29109,-12.29109 28.54894,-15.56001 63.34542,-12.73666 20.04341,1.62631 21.34689,1.56885 28.95062,-1.27606 9.96479,-3.72831 17.86187,-3.76647 29.59332,-0.14299 16.78361,5.18393 35.80043,20.22298 46.27272,36.59381 18.71939,29.2631 15.09131,57.51666 -9.99424,77.83022 -23.62505,19.13087 -62.87235,29.63388 -95.61872,25.58864 z"
       style="fill:#a0a0a0;stroke:none;stroke-width:1px;stroke-linecap:butt;stroke-linejoin:miter;stroke-opacity:1" />
  </g>
</svg>
