<?xml version="1.0" encoding="UTF-8" standalone="no"?>
<svg
   xmlns:dc="http://purl.org/dc/elements/1.1/"
   xmlns:cc="http://creativecommons.org/ns#"
   xmlns:rdf="http://www.w3.org/1999/02/22-rdf-syntax-ns#"
   xmlns:svg="http://www.w3.org/2000/svg"
   xmlns="http://www.w3.org/2000/svg"
   width="16"
   height="16"
   viewBox="0 0 16 16"
   id="svg2"
   version="1.1">
  <defs
     id="defs4" />
  <metadata
     id="metadata7">
    <rdf:RDF>
      <cc:Work
         rdf:about="">
        <dc:format>image/svg+xml</dc:format>
        <dc:type
           rdf:resource="http://purl.org/dc/dcmitype/StillImage" />
        <dc:title></dc:title>
      </cc:Work>
    </rdf:RDF>
  </metadata>
  <path
     id="path3401"
     d="M 12,14 C 11,14 10,14 9.6,13 9.3,13 9,13 9,13 9,13 9.1,13 9.2,13 9.9,11 11,9 12,8.8 c 0,0 0,0 0,0.1 0,0.1 0,0.1 0,0 1,-0.2 1,0 2,0.3 0,0.5 0,1.8 0,1.8 1,1 1,2 0,2 0,0 0,1 -1,1 0,1 0,1 -1,0 z"
     style="fill:#a0a0a0;stroke:none;stroke-width:1px;stroke-linecap:butt;stroke-linejoin:miter;stroke-opacity:1" />
  <path
     id="path3405"
     d="M 4.1,14 C 2.4,13 1.3,13 0.87,12 c -0.1,0 -0.1,0 0,0 0.1,-1 0.63,-1 1.03,-2 0.3,0 0.3,0 0.6,0 l 0.3,0 0,0 0.1,0 0.1,0 c 0.1,0 0.1,0 0.5,0 1.1,0 2.6,1 3.6,2 l 0,0 c 0,1 -1,1 -1.7,1 0,1 -1,1 -1.3,1 z"
     style="fill:#a0a0a0;stroke:none;stroke-width:1px;stroke-linecap:butt;stroke-linejoin:miter;stroke-opacity:1" />
  <path
     id="path3409"
     d="M 5,4.8 C 4.2,4.7 2.8,4.4 2.4,4.1 2.1,3.9 1.8,3.7 1.6,3.3 1.4,2.9 1.4,2.8 1.6,2.6 2,2.2 2.7,1.9 3,2.1 3.2,2.2 3.2,2.2 3.4,2.1 3.7,1.9 3.8,1.9 4.2,2 c 0.9,0.3 2.2,1.5 2.2,2.3 0,0.1 0,0.2 0,0.3 0,0.2 -0.8,0.2 -1.4,0.2 z"
     style="fill:#a0a0a0;stroke:none;stroke-width:1px;stroke-linecap:butt;stroke-linejoin:miter;stroke-opacity:1" />
  <path
     id="path3405-3"
     d="m 12,5.7 c -2,-1 -3,-1 -3.4,-2 -0.1,0 -0.1,0 0,0 0.1,-1 0.6,-1 1,-2 0.3,0 0.3,0 0.4,0 l 1,0 0,0 0,0 0,0 c 0,0 0,0 0,0 1,0 3,1 4,2 l 0,0 c 0,1 -1,1 -2,1 0,1 -1,1 -1,1 z"
     style="fill:#a0a0a0;stroke:none;stroke-width:1px;stroke-linecap:butt;stroke-linejoin:miter;stroke-opacity:1" />
  <path
     id="path3409-8"
     d="M 8.6,9.5 C 7.8,9.5 6.4,8.5 6,8.5 5.7,8.5 5.4,8.5 5.2,7.5 5,7.5 5,7.5 5.2,6.5 5.6,6.5 6.3,6.2 6.6,6.4 6.8,6.5 6.8,6.5 7,6.4 7.3,6.2 7.3,6.2 7.8,6.3 8.7,6.5 10,7.5 10,8.5 c 0,0 0,0 0,0 0,1 -0.8,1 -1.4,1 z"
     style="fill:#a0a0a0;stroke:none;stroke-width:1px;stroke-linecap:butt;stroke-linejoin:miter;stroke-opacity:1" />
</svg>
