<?xml version="1.0" encoding="UTF-8" standalone="no"?>
<svg
   xmlns:dc="http://purl.org/dc/elements/1.1/"
   xmlns:cc="http://creativecommons.org/ns#"
   xmlns:rdf="http://www.w3.org/1999/02/22-rdf-syntax-ns#"
   xmlns:svg="http://www.w3.org/2000/svg"
   xmlns="http://www.w3.org/2000/svg"
   width="16"
   height="16"
   viewBox="0 0 16 16"
   id="svg2"
   version="1.1">
  <defs
     id="defs4" />
  <metadata
     id="metadata7">
    <rdf:RDF>
      <cc:Work
         rdf:about="">
        <dc:format>image/svg+xml</dc:format>
        <dc:type
           rdf:resource="http://purl.org/dc/dcmitype/StillImage" />
        <dc:title></dc:title>
      </cc:Work>
    </rdf:RDF>
  </metadata>
  <path
     id="path3401"
     d="m 13,14 c -1,0 -3,0 -3,-1 -0.2,0 -0.5,0 -0.5,0 0,0 0.1,0 0.2,0 0.3,-1 2.3,-3 3.3,-3 0,0 0,0 0,0 0,0 0,0 0,0 0,0 0,0 1,0 0,0 0,2 0,2 1,1 1,1 0,1 0,0 0,1 -1,1 0,1 0,1 0,0 z"
     style="fill:#a0a0a0;stroke:none;stroke-width:1px;stroke-linecap:butt;stroke-linejoin:miter;stroke-opacity:1" />
  <path
     id="path3405"
     d="M 4.1,14 C 2.4,13 1.3,13 0.87,12 c -0.1,0 -0.1,0 0,0 0.1,-1 0.63,-1 1.03,-2 0.3,0 0.3,0 0.6,0 l 0.3,0 0,0 0.1,0 0.1,0 c 0.1,0 0.1,0 0.5,0 1.1,0 2.6,1 3.6,2 l 0,0 c 0,1 -1,1 -1.7,1 0,1 -1,1 -1.3,1 z"
     style="fill:#a0a0a0;stroke:none;stroke-width:1px;stroke-linecap:butt;stroke-linejoin:miter;stroke-opacity:1" />
  <path
     id="path3409"
     d="M 5,4.8 C 4.2,4.7 2.8,4.4 2.4,4.1 2.1,3.9 1.8,3.7 1.6,3.3 1.4,2.9 1.4,2.8 1.6,2.6 2,2.2 2.7,1.9 3,2.1 3.2,2.2 3.2,2.2 3.4,2.1 3.7,1.9 3.8,1.9 4.2,2 c 0.9,0.3 2.2,1.5 2.2,2.3 0,0.1 0,0.2 0,0.3 0,0.2 -0.8,0.2 -1.4,0.2 z"
     style="fill:#a0a0a0;stroke:none;stroke-width:1px;stroke-linecap:butt;stroke-linejoin:miter;stroke-opacity:1" />
  <path
     id="path3405-3"
     d="m 12,5.7 c -2,-1 -3,-1 -3.4,-2 -0.1,0 -0.1,0 0,0 0.1,-1 0.6,-1 1,-2 0.3,0 0.3,0 0.4,0 l 1,0 0,0 0,0 0,0 c 0,0 0,0 0,0 1,0 3,1 4,2 l 0,0 c 0,1 -1,1 -2,1 0,1 -1,1 -1,1 z"
     style="fill:#a0a0a0;stroke:none;stroke-width:1px;stroke-linecap:butt;stroke-linejoin:miter;stroke-opacity:1" />
  <path
     id="path3409-8"
     d="M 4.6,9.2 C 3.8,9.2 2.4,8.2 2,8.2 1.7,8.2 1.4,8.2 1.2,7.2 1,7.2 1,7.2 1.2,6.2 1.6,6.2 2.3,5.9 2.6,6.1 2.8,6.2 2.8,6.2 3,6.1 3.3,5.9 3.3,5.9 3.8,6 4.7,6.2 6,7.2 6,8.2 c 0,0 0,0 0,0 0,1 -0.8,1 -1.4,1 z"
     style="fill:#a0a0a0;stroke:none;stroke-width:1px;stroke-linecap:butt;stroke-linejoin:miter;stroke-opacity:1" />
  <path
     id="path3409-7"
     d="M 13,9.3 C 12,9.3 11,8.3 10,8.2 9.8,8 9.5,7.8 9.3,7.4 9.1,7 9.1,6.9 9.3,6.7 9.7,6.3 10,6 11,6.2 c 0,0.1 0,0.1 1,0 0,-0.2 0,-0.2 0,-0.1 1,0.3 3,1.5 3,2.2 0,0 0,0 0,0 0,1 -1,1 -2,1 z"
     style="fill:#a0a0a0;stroke:none;stroke-width:1px;stroke-linecap:butt;stroke-linejoin:miter;stroke-opacity:1" />
</svg>
